<svg xmlns="http://www.w3.org/2000/svg" xmlns:xlink="http://www.w3.org/1999/xlink" xmlns:lucid="lucid" width="1687.95" height="727.97"><g transform="translate(200 20)" lucid:page-tab-id="0_0"><path d="M-101.68 504.5h-76.64c-.88 0-1.68-.75-1.68-1.7v-5.1c0-18.2 11.92-33.44 29.52-37.72.48-.1.88-.04 1.28.18 5.92 3.2 12.48 3.2 18.4 0 .4-.22.8-.27 1.2-.18 17.68 4.28 29.6 19.52 29.6 37.7v5.13c0 .95-.8 1.7-1.68 1.7zm-74.88-3.43h73.12v-3.38c.08-16.37-10.56-30.1-26.32-34.2-3.36 1.65-6.48 2.4-10.24 2.4s-6.88-.7-10.24-2.4c-15.76 4.1-26.4 17.83-26.32 34.2z" stroke="#fff" stroke-opacity="0" fill="#ed3e3e"/><path d="M-140 465.8c-3.67 0-6.8-.78-10.03-2.56-9.95-5.57-13.5-18.2-7.93-28.16 5.58-9.95 18.17-13.5 28.1-7.93 6.72 3.76 10.56 10.32 10.56 18.05 0 7.76-3.93 14.37-10.74 18.04-3.22 1.74-6.32 2.57-9.95 2.57zm0-37.83c-6.6-.16-12.26 3.2-15.44 8.97-4.5 8.38-1.4 18.8 6.94 23.33 5.4 2.93 11.36 2.93 16.77 0 5.7-3.1 9-8.67 8.96-15.2-.04-9.5-7.76-17.14-17.22-17.1z" stroke="#fff" stroke-opacity="0" fill="#ed3e3e"/><use xlink:href="#a" transform="matrix(1,0,0,1,-210,513.5057605610286) translate(51.05 14.4)"/><path d="M-20 306.53h200V424.5c-33.4-19.7-54.2-19.7-66.8-19.7-20 0-46.6 19.7-66.6 19.7-12.4 0-33.4 0-66.6-19.7z" stroke="#000" stroke-width="2" fill="#fff"/><use xlink:href="#b" transform="matrix(1,0,0,1,-15,311.5310729609005) translate(19 14.4)"/><use xlink:href="#c" transform="matrix(1,0,0,1,-15,311.5310729609005) translate(29.95 14.4)"/><use xlink:href="#d" transform="matrix(1,0,0,1,-15,311.5310729609005) translate(88.9 14.4)"/><use xlink:href="#e" transform="matrix(1,0,0,1,-15,311.5310729609005) translate(19 36)"/><use xlink:href="#f" transform="matrix(1,0,0,1,-15,311.5310729609005) translate(29.95 36)"/><use xlink:href="#g" transform="matrix(1,0,0,1,-15,311.5310729609005) translate(121.85000000000001 36)"/><use xlink:href="#e" transform="matrix(1,0,0,1,-15,311.5310729609005) translate(19 57.6)"/><use xlink:href="#h" transform="matrix(1,0,0,1,-15,311.5310729609005) translate(29.95 57.6)"/><use xlink:href="#i" transform="matrix(1,0,0,1,-15,311.5310729609005) translate(70.85 57.6)"/><use xlink:href="#e" transform="matrix(1,0,0,1,-15,311.5310729609005) translate(19 79.20000000000002)"/><use xlink:href="#j" transform="matrix(1,0,0,1,-15,311.5310729609005) translate(29.95 79.20000000000002)"/><use xlink:href="#k" transform="matrix(1,0,0,1,-15,311.5310729609005) translate(63.95 79.20000000000002)"/><use xlink:href="#l" transform="matrix(1,0,0,1,-15,311.5310729609005) translate(19 100.80000000000001)"/><path d="M607.4 520.1l46.1-25.62v-51.1l-46.1 25.55v51.18z" fill="#fff"/><path d="M561.4 494.46l46.03 25.6v-51.12l-46.04-25.52v51.04zM653.2 443.4L607.43 418l-45.76 25.4 45.76 25.4 45.75-25.4z" fill="#fff"/><path d="M607.43 467.28l43.1-23.88-.05-.02-43.05 23.9z" fill="#fff"/><path d="M564.38 443.38l-.04.02 43.1 23.88-43.06-23.9z" fill="#fff"/><path d="M653.4 441.78l-46-25.53-45.98 25.53-1.42.84v52.74l46.08 25.52 1.42.84 1.42-.84L655 495.36v-52.74zm-1.44 51.9l-43.04 23.93v-47.87l43.13-23.84zm-45.98 23.93l-43.13-23.93V445.9l43.13 23.83zm-41.6-74.24l43.02-23.84 43.13 23.84-43.13 23.94-43.03-23.94z" fill="#444"/><path d="M607.62 496.53l24.77-13.76v-27.42l-24.78 13.7v27.48zM582.48 482.77l24.76 13.76v-27.47l-24.76-13.7v27.4zM632.12 454.97l-24.7-13.68-24.68 13.67 24.7 13.73 24.68-13.73z" fill="#f25f6d"/><path d="M607.43 467.3l22.2-12.3-.02-.02-22.17 12.32zM585.24 454.98l-.02.03 22.2 12.3-22.18-12.32z" fill="#fc585b"/><path d="M632.55 453.32l-25.1-13.9-25.16 13.9-1.45.83v29.6l25.1 13.94 1.5.82 1.43-.83 25.16-13.95v-29.6zm-1.43 28.77l-22.24 12.34v-24.7l22.24-12.28zm-25.16 12.34l-22.24-12.35v-24.64l22.24 12.28zm-20.7-39.47l22.2-12.3 22.17 12.3-22.18 12.35-22.24-12.3z" fill="#fff"/><use xlink:href="#m" transform="matrix(1,0,0,1,560,521.7231928566679) translate(17.049999999999997 14.4)"/><path d="M-20 520h180v117.97c-30.06-19.7-48.78-19.7-60.12-19.7-18 0-41.94 19.7-59.94 19.7-11.16 0-30.06 0-59.94-19.7z" stroke="#000" stroke-width="2" fill="#fff"/><use xlink:href="#n" transform="matrix(1,0,0,1,-15,525) translate(32.025 37.3)"/><use xlink:href="#o" transform="matrix(1,0,0,1,-15,525) translate(88.975 37.3)"/><use xlink:href="#p" transform="matrix(1,0,0,1,-15,525) translate(108.975 37.3)"/><use xlink:href="#q" transform="matrix(1,0,0,1,-15,525) translate(40.45 58.9)"/><use xlink:href="#r" transform="matrix(1,0,0,1,-15,525) translate(93.65 58.9)"/><path d="M-140 423.53v-58h100.5" stroke="#000" stroke-width="2" fill="none"/><path d="M-139 424.6l-.75-.1-1.25.1v-1.1h2z"/><path d="M-24.24 365.52l-14.26 4.63v-9.27z" stroke="#000" stroke-width="2"/><path d="M182 365.52h197.5v35.98" stroke="#000" stroke-width="2" fill="none"/><path d="M182.03 366.52H181v-2h1.03z"/><path d="M379.5 416.76l-4.64-14.26h9.28z" stroke="#000" stroke-width="2"/><path d="M980 537.97h120v120H980v-120z" stroke="#fff" stroke-opacity="0" fill="#f25f6d"/><path d="M1057.6 636.4c-.35 0-.64-.16-.93-.3-.43-.32-.67-.78-.67-1.32v-73.6c0-.55.3-1.1.77-1.4.48-.3 1.08-.3 1.6-.07l20.8 10.23c.56.23.9.76.9 1.38v56.57c.02.76-.4 1.38-1.1 1.6l-20.8 6.93h-.56zm1.62-72.62v68.77l17.6-5.84v-54.4zM1022.4 636.4h-.52l-20.8-6.92c-.67-.23-1.1-.92-1.08-1.62V571.3c0-.6.33-1.14.9-1.37l20.8-10.22c.52-.23 1.1-.23 1.6.08.48.3.75.85.75 1.4v73.6c0 .54-.24 1-.68 1.3-.28.24-.6.3-.98.3zm-19.2-9.6l17.6 5.83v-68.85l-17.6 8.6z" stroke="#fff" stroke-opacity="0" fill="#fff"/><path d="M1056 581.97h-4.8v-3.2h4.8zm-9.6 0h-4.8v-3.2h4.8zm-9.6 0h-4.8v-3.2h4.8zm-9.6 0h-4.8v-3.2h4.8zM1056 617.17h-4.8v-3.2h4.8zm-9.6 0h-4.8v-3.2h4.8zm-9.6 0h-4.8v-3.2h4.8zm-9.6 0h-4.8v-3.2h4.8zM1032.98 603.48l-6.02-5.13c-.67-.58-.75-1.6-.18-2.27l.18-.17 6-5.13 2.08 2.43-4.58 3.98 4.58 3.9zM1047.04 603.48l-2.08-2.43 4.57-3.87-4.6-3.92 2.1-2.5 6 5.13c.68.57.76 1.58.2 2.26l-.2.16z" stroke="#fff" stroke-opacity="0" fill="#fff"/><path d="M1035.3 606.85l6.35-18.8 3.04 1.02-6.37 18.8-3.04-1.02z" stroke="#fff" stroke-opacity="0" stroke-width=".32" fill="#fff"/><use xlink:href="#s" transform="matrix(1,0,0,1,950,666.9746876001282) translate(2.049999999999997 14.4)"/><use xlink:href="#t" transform="matrix(1,0,0,1,950,666.9746876001282) translate(73 14.4)"/><use xlink:href="#u" transform="matrix(1,0,0,1,950,666.9746876001282) translate(107 14.4)"/><path d="M179.5 579h200v-40.03" stroke="#000" stroke-width="2" fill="none"/><path d="M164.24 579l14.26-4.65v9.27z" stroke="#000" stroke-width="2"/><path d="M380.5 539h-2v-1.03h2z"/><path d="M1451.5 504.5h-89.54c-1.03 0-1.96-.9-1.96-1.95v-43.57h4.02v41.55h85.4v-57.27h-54.28v-3.98h56.35c1.02 0 1.95.9 1.95 1.96v61.3c0 1.05-.93 1.97-1.96 1.97z" stroke="#fff" stroke-opacity="0" fill="#ed3e3e"/><path d="M1406.7 480.36c-.43 0-.86-.16-1.22-.45l-24.03-19.94 2.57-3.05 22.67 18.9 43.5-36.08 2.56 3.05-44.7 37.14c-.44.3-.87.46-1.37.46z" stroke="#fff" stroke-opacity="0" fill="#ed3e3e"/><path d="M1413.28 473.4l2.57-3.04 36.88 30.65-2.57 3.04-36.88-30.65z" stroke="#fff" stroke-opacity="0" stroke-width=".64" fill="#ed3e3e"/><path d="M1360.73 501l36.87-30.65 2.57 3.03-36.88 30.66-2.57-3.03z" stroke="#fff" stroke-opacity="0" stroke-width=".77" fill="#ed3e3e"/><path d="M1374.28 453c1.98-.04 3.62-.34 5.47-1.06v3.43c-1.97.95-3.8 1.36-5.98 1.33-2.54.07-4.75-.48-6.96-1.77-2.02-1.22-3.43-2.82-4.4-4.96-1.1-2.58-1.57-5-1.5-7.77-.07-3.7.65-6.9 2.3-10.2 1.43-2.95 3.34-5.1 6.1-6.85 2.6-1.67 5.25-2.45 8.36-2.4 2.57-.08 4.8.43 7.1 1.65 2.02 1.12 3.45 2.62 4.5 4.72 1.1 2.4 1.6 4.65 1.53 7.3.02 2.38-.34 4.42-1.2 6.63-.67 1.8-1.62 3.2-3.1 4.44-1.22 1.05-2.6 1.56-4.24 1.56-.86.03-1.64-.17-2.42-.55-.7-.36-1.25-.87-1.67-1.55-.66.7-1.32 1.2-2.18 1.6-.76.4-1.48.6-2.32.64-1.52.06-2.84-.62-3.67-1.84-.98-1.7-1.37-3.36-1.25-5.3-.03-2.1.3-3.94 1.02-5.94.54-1.67 1.34-3 2.6-4.28.9-.95 2-1.43 3.3-1.5 1.48.04 2.74.75 3.55 1.97l.4-1.38h3.66l-1.64 12.13c-.03.37-.03.7 0 1.08-.03.4.06.78.33 1.12.2.27.5.4.83.4.87-.1 1.6-.57 2-1.35.72-1.08 1.2-2.1 1.47-3.4.4-1.52.57-2.85.54-4.44.22-2.8-.56-5.27-2.35-7.48-1.92-1.86-4.25-2.7-6.94-2.54-2.38 0-4.4.68-6.33 2.1-2 1.53-3.38 3.3-4.33 5.64-1.1 2.65-1.6 5.06-1.53 7.95-.17 3.02.6 5.64 2.4 8.08 1.7 1.95 3.98 2.93 6.58 2.8zm1.2-7.4c.8-.04 1.5-.38 2-1V443.94c-.03-.5-.03-.92 0-1.43l1.08-7.9c-.54-.42-1.1-.66-1.77-.7-.96 0-1.74.72-2.4 2.18-.75 1.84-1.04 3.54-.95 5.54.08 2.65.7 3.97 2.03 3.97z" stroke="#fff" stroke-opacity="0" fill="#ed3e3e"/><use xlink:href="#v" transform="matrix(1,0,0,1,1330,513.5057605610286) translate(34.074999999999996 14.4)"/><use xlink:href="#w" transform="matrix(1,0,0,1,1330,513.5057605610286) translate(75.07499999999999 14.4)"/><path d="M1440 318.5h-38.5V280h38.5zm-35.1-3.4h31.7v-31.7h-31.7zM1440 360h-38.5v-38.5h38.5zm-35.1-3.4h31.7v-31.7h-31.7zM1398.5 318.5H1360V280h38.5zm-35.1-3.4h31.7v-31.7h-31.7zM1398.5 360H1360v-38.5h38.5zm-35.1-3.4h31.7v-31.7h-31.7z" stroke="#fff" stroke-opacity="0" fill="#ed3e3e"/><path d="M1420.76 312.14c-7.1 0-12.9-5.75-12.9-12.86 0-7.12 5.73-12.9 12.85-12.9 7.12 0 12.92 5.73 12.92 12.85v.02c0 7.1-5.78 12.86-12.86 12.9zm0-22.35h-.05c-5.23 0-9.45 4.25-9.45 9.48 0 5.25 4.25 9.48 9.5 9.48 5.24-.03 9.47-4.28 9.47-9.5-.03-5.24-4.26-9.47-9.46-9.47z" stroke="#fff" stroke-opacity="0" fill="#ed3e3e"/><use xlink:href="#x" transform="matrix(1,0,0,1,1330,369) translate(4.099999999999994 14.4)"/><use xlink:href="#y" transform="matrix(1,0,0,1,1330,369) translate(100.95 14.4)"/><path d="M1017.77 217.77H1000V200h17.77zm-14.36-3.4h10.96V203.4h-10.95zM1017.77 238.5H1000v-17.75h17.77zm-14.36-3.4h10.96v-10.94h-10.95zM1017.77 259.25H1000V241.5h17.77zm-14.36-3.4h10.96V244.9h-10.95zM1017.77 280H1000v-17.77h17.77zm-14.36-3.4h10.96v-10.96h-10.95zM1080 217.77h-59.25V200H1080zm-55.87-3.4h52.5V203.4h-52.5zM1080 238.5h-59.25v-17.75H1080zm-55.87-3.4h52.5v-10.94h-52.5zM1080 259.25h-59.25V241.5H1080zm-55.87-3.4h52.5V244.9h-52.5zM1080 280h-59.25v-17.77H1080zm-55.87-3.4h52.5v-10.96h-52.5z" stroke="#fff" stroke-opacity="0" fill="#ed3e3e"/><use xlink:href="#x" transform="matrix(1,0,0,1,970,289) translate(0.125 14.4)"/><use xlink:href="#z" transform="matrix(1,0,0,1,970,289) translate(96.97500000000001 14.4)"/><path d="M1063.95 406.77H1051c-.65 0-1.26-.38-1.52-.98l-18.14-38.9h-7.32c-.9 0-1.7-.76-1.7-1.7V354c0-.94.8-1.7 1.7-1.7h16.15c.7 0 1.26.38 1.52.98l18.1 38.9h4.15c.9 0 1.68.76 1.68 1.74v11.16c0 .93-.78 1.7-1.68 1.7zm-11.9-3.43h10.16v-7.74h-3.5c-.64 0-1.25-.38-1.5-.98l-18.07-38.94h-13.38v7.8h6.67c.7 0 1.3.37 1.56.97z" stroke="#fff" stroke-opacity="0" fill="#ed3e3e"/><path d="M1028.8 406.77H1015c-.9 0-1.68-.77-1.68-1.72 0-.27.05-.47.17-.7l14.45-30.27c.3-.6.87-.98 1.53-.98.67 0 1.24.34 1.54.94l6.9 14.3c.23.48.23 1 0 1.46l-7.55 16c-.3.6-.87.97-1.54.97zm-11.1-3.4h10.02l6.8-14.28-5.1-10.38z" stroke="#fff" stroke-opacity="0" fill="#ed3e3e"/><path d="M1040 422.74c-22.08 0-40-17.92-40-40s17.92-40 40-40 40 17.92 40 40-17.92 40-40 40zm0-76.56c-20.24 0-36.56 16.32-36.56 36.56 0 20.24 16.32 36.56 36.56 36.56 20.24 0 36.56-16.32 36.56-36.56 0-20.24-16.32-36.56-36.56-36.56z" stroke="#fff" stroke-opacity="0" fill="#ed3e3e"/><use xlink:href="#A" transform="matrix(1,0,0,1,970,431.7358490566038) translate(0.5749999999999886 14.4)"/><use xlink:href="#B" transform="matrix(1,0,0,1,970,431.7358490566038) translate(70.52499999999999 14.4)"/><path d="M801 480H656v-2h143v-42.6h2zm180.5-96.26H801v30.07h-2v-32.06h182.5z"/><path d="M656.03 480H655v-2h1.03zM996.76 382.74l-14.26 4.63v-9.27z"/><path d="M1000 382.74l-18.5 6v-12.02zM983.5 386l10.03-3.26-10.03-3.26z"/><use xlink:href="#C" transform="matrix(1,0,0,1,676.125,413.8118966763806) translate(0 14.4)"/><use xlink:href="#D" transform="matrix(1,0,0,1,676.125,413.8118966763806) translate(20 14.4)"/><use xlink:href="#E" transform="matrix(1,0,0,1,676.125,413.8118966763806) translate(78.9 14.4)"/><use xlink:href="#F" transform="matrix(1,0,0,1,676.125,413.8118966763806) translate(108.9 14.4)"/><use xlink:href="#B" transform="matrix(1,0,0,1,676.125,413.8118966763806) translate(178.85000000000002 14.4)"/><path d="M1192.4 423.86l46.1-25.63v-51.1l-46.1 25.55v51.18z" fill="#fff"/><path d="M1146.4 398.2l46.03 25.6v-51.1l-46.04-25.53v51.04zM1238.2 347.15l-45.76-25.4-45.76 25.4 45.76 25.4 45.75-25.4z" fill="#fff"/><path d="M1192.43 371.03l43.1-23.88-.05-.02-43.05 23.9z" fill="#fff"/><path d="M1149.38 347.13l-.04.02 43.1 23.88-43.06-23.9z" fill="#fff"/><path d="M1238.38 345.52L1192.4 320l-45.98 25.52-1.42.85v52.73l46.08 25.53 1.42.84 1.42-.84L1240 399.1v-52.73zm-1.42 51.9l-43.04 23.94v-47.9l43.13-23.82zm-45.98 23.94l-43.13-23.94v-47.78l43.13 23.83zm-41.6-74.25l43.02-23.83 43.13 23.84-43.13 23.95-43.03-23.94z" fill="#444"/><path d="M1192.62 400.27l24.77-13.75V359.1l-24.78 13.7v27.47zM1167.48 386.52l24.76 13.75V372.8l-24.76-13.7v27.42zM1217.12 358.72l-24.7-13.68-24.68 13.68 24.7 13.73 24.68-13.73z" fill="#f25f6d"/><path d="M1192.43 371.06l22.2-12.3-.02-.03-22.17 12.32zM1170.24 358.73l-.02.02 22.2 12.3-22.18-12.32z" fill="#fc585b"/><path d="M1217.55 357.07l-25.1-13.9-25.16 13.9-1.45.82v29.6l25.1 13.94 1.5.83 1.43-.83 25.16-13.94v-29.6zm-1.43 28.77l-22.24 12.35v-24.7l22.24-12.3zm-25.16 12.35l-22.24-12.36V361.2l22.24 12.3zm-20.7-39.48l22.2-12.3 22.17 12.3-22.18 12.35-22.24-12.3z" fill="#fff"/><use xlink:href="#m" transform="matrix(1,0,0,1,1145,425.47169811320754) translate(17.049999999999997 14.4)"/><path d="M1081 382.74h45.5" stroke="#000" stroke-width="2" fill="none"/><path d="M1081.03 383.74h-1.1l.07-1-.04-1h1.07z"/><path d="M1141.76 382.74l-14.26 4.63v-9.27z" stroke="#000" stroke-width="2"/><path d="M1241 382.74h59V320h41.5" stroke="#000" stroke-width="2" fill="none"/><path d="M1241.03 383.74H1240v-2h1.03z"/><path d="M1356.76 320l-14.26 4.64v-9.28z" stroke="#000" stroke-width="2"/><path d="M1241 382.74h59v80.88h41.5" stroke="#000" stroke-width="2" fill="none"/><path d="M1241.03 383.74H1240v-2h1.03z"/><path d="M1356.76 463.62l-14.26 4.64V459z" stroke="#000" stroke-width="2"/><path d="M1040 536.97v-95.73" stroke="#000" stroke-width="2" fill="none"/><path d="M1041 537.97h-2v-1.02h2z"/><path d="M1040 425.97l4.64 14.27h-9.28z" stroke="#000" stroke-width="2"/><path d="M801 549.58h160.5v2H799v-8.5h2zm0-28.1h-2V480H656v-2h145z"/><path d="M656.03 480H655v-2h1.03zM976.76 550.58l-14.26 4.64v-9.27z"/><path d="M980 550.58l-18.5 6.02v-12.03zm-16.5 3.26l10.03-3.26-10.03-3.25z"/><use xlink:href="#G" transform="matrix(1,0,0,1,704.775,521.4857910909161) translate(0 14.4)"/><use xlink:href="#D" transform="matrix(1,0,0,1,704.775,521.4857910909161) translate(20 14.4)"/><use xlink:href="#E" transform="matrix(1,0,0,1,704.775,521.4857910909161) translate(78.9 14.4)"/><use xlink:href="#H" transform="matrix(1,0,0,1,704.775,521.4857910909161) translate(108.9 14.4)"/><use xlink:href="#I" transform="matrix(1,0,0,1,704.775,521.4857910909161) translate(161.45000000000002 14.4)"/><path d="M-22 579h-118v-56" stroke="#000" stroke-width="2" fill="none"/><path d="M-21 580h-1.03v-2H-21z"/><path d="M-140 507.74l4.64 14.27h-9.28z" stroke="#000" stroke-width="2"/><path d="M801 480H656v-2h143v-42.6h2zm0-66.2h-2V297.5h2zM981.5 241H801v34.88h-2V239h182.5z"/><path d="M656.03 480H655v-2h1.03zM996.76 240l-14.26 4.64v-9.28z"/><path d="M1000 240l-18.5 6v-12zm-16.5 3.26l10.03-3.26-10.03-3.26z"/><g><use xlink:href="#J" transform="matrix(1,0,0,1,673.175,275.8826645056915) translate(0 14.4)"/><use xlink:href="#D" transform="matrix(1,0,0,1,673.175,275.8826645056915) translate(20 14.4)"/><use xlink:href="#E" transform="matrix(1,0,0,1,673.175,275.8826645056915) translate(78.9 14.4)"/><use xlink:href="#K" transform="matrix(1,0,0,1,673.175,275.8826645056915) translate(108.9 14.4)"/><use xlink:href="#L" transform="matrix(1,0,0,1,673.175,275.8826645056915) translate(180.8 14.4)"/><use xlink:href="#z" transform="matrix(1,0,0,1,673.175,275.8826645056915) translate(210.75 14.4)"/></g><path d="M1400 279v-39h-301.5" stroke="#000" stroke-width="2" fill="none"/><path d="M1401 283h-2v-4.03h2z"/><path d="M1083.24 240l14.26-4.64v9.28z" stroke="#000" stroke-width="2"/><path d="M980 0h120v120H980V0z" stroke="#fff" stroke-opacity="0" stroke-width="2" fill="#f25f6d"/><path d="M1040 20c-8.72 0-16.23 2.4-23.35 7.54-17.9 12.86-22 37.88-9.12 55.8l2.56-1.9c-11.84-16.47-8.1-39.46 8.4-51.3 16.54-11.9 39.5-8.18 51.4 8.36 4.72 6.52 6.88 13.43 6.88 21.47 0 8.1-2.16 14.95-6.87 21.47l2.57 1.9c5.1-7.1 7.5-14.57 7.5-23.3 0-22.1-17.9-40.04-39.97-40.04z" stroke="#fff" stroke-opacity="0" stroke-width="2" fill="#fff"/><path d="M1060.8 83.4v-5.83c0-.85-.73-1.58-1.58-1.58h-17.64v-9.62h17.64c.85 0 1.58-.73 1.58-1.58V40.78c0-.85-.73-1.58-1.58-1.58h-38.44c-.85 0-1.58.73-1.58 1.58V64.8c0 .85.73 1.58 1.58 1.58h17.64v9.6h-17.64c-.85 0-1.58.74-1.58 1.6v5.83c-2.75.62-4.8 2.63-5.44 5.42-.85 3.9 1.58 7.73 5.44 8.64 3.9.85 7.76-1.58 8.6-5.47.9-3.85-1.53-7.74-5.38-8.6v-4.18h16v6.56c-2.8.67-4.8 2.68-5.44 5.42-.9 3.9 1.53 7.72 5.44 8.63 3.85.9 7.7-1.52 8.6-5.4.9-3.9-1.53-7.73-5.44-8.65v-6.56h16v4.2c-2.74.6-4.75 2.6-5.38 5.4-.9 3.9 1.53 7.73 5.38 8.64 3.9.85 7.77-1.58 8.66-5.47.85-3.85-1.58-7.74-5.44-8.6zm-14-30.52l10.78-8.7v17.28zm-6.8 1.4l-14.68-11.86h29.36zm-6.92-1.46l-10.66 8.64V44.2zm2.6 2.07l3.32 2.73c.58.48 1.42.48 2 0l3.22-2.68 10.3 8.27h-29.2zm-10.9 35.5c0 2.2-1.78 4.02-4 4.02-2.17 0-3.96-1.83-3.96-4 0-2.2 1.8-4.03 3.96-4.03 2.22 0 4 1.82 4 4zm19.23 2.38c0 2.25-1.78 4-4 4-2.22 0-4-1.75-4-4 0-2.2 1.78-3.96 4-3.96 2.22 0 4 1.77 4 3.96zm15.22 1.64c-2.22 0-4-1.83-4-4 0-2.2 1.78-4.03 4-4.03 2.17 0 3.96 1.82 3.96 4 0 2.2-1.8 4.02-3.96 4.02z" stroke="#fff" stroke-opacity="0" stroke-width="2" fill="#fff"/><g><use xlink:href="#s" transform="matrix(1,0,0,1,950,129) translate(2.174999999999983 14.4)"/><use xlink:href="#M" transform="matrix(1,0,0,1,950,129) translate(73.12499999999999 14.4)"/><use xlink:href="#N" transform="matrix(1,0,0,1,950,129) translate(132.975 14.4)"/><use xlink:href="#O" transform="matrix(1,0,0,1,950,129) translate(33.599999999999994 36)"/><use xlink:href="#P" transform="matrix(1,0,0,1,950,129) translate(98.5 36)"/></g><path d="M801 480H656v-2h143v-42.6h2zm0-66.2h-2V297.5h2zm0-137.92h-2V172.66h2zM961.5 61H801v90.06h-2V59h162.5z"/><path d="M656.03 480H655v-2h1.03zM976.76 60l-14.26 4.64v-9.28z"/><path d="M980 60l-18.5 6V54zm-16.5 3.26L973.53 60l-10.03-3.26z"/><g><use xlink:href="#Q" transform="matrix(1,0,0,1,702.325,151.05619752360855) translate(0 14.4)"/><use xlink:href="#R" transform="matrix(1,0,0,1,702.325,151.05619752360855) translate(20 14.4)"/><use xlink:href="#S" transform="matrix(1,0,0,1,702.325,151.05619752360855) translate(88.55 14.4)"/><use xlink:href="#T" transform="matrix(1,0,0,1,702.325,151.05619752360855) translate(136.4 14.4)"/><use xlink:href="#U" transform="matrix(1,0,0,1,702.325,151.05619752360855) translate(159.35000000000002 14.4)"/></g><path d="M432.16 504.4H326.74c-4.23 0-7.74-3.46-7.74-7.68v-69.04c0-4.22 3.5-7.68 7.74-7.68h105.42c4.23 0 7.74 3.46 7.74 7.68v68.96c0 4.3-3.4 7.76-7.62 7.76h-.12zm-105.3-79.25c-1.45 0-2.66 1.1-2.66 2.53v68.96c0 1.43 1.2 2.6 2.66 2.6h105.42c1.45 0 2.54-1.17 2.54-2.6v-68.96c0-1.43-1.1-2.53-2.54-2.53zM430.93 537.97H328c-4.96-.02-8.95-4-8.95-8.95v-11.1c0-4.96 4-9 8.95-9.03h102.93c4.96 0 9.07 4.03 9.07 9v11.12c0 4.97-4.1 8.95-9.07 8.95zM328 514c-2.05.04-3.75 1.78-3.75 3.9v11.12c0 2.12 1.7 3.8 3.75 3.84h102.93c2.18 0 3.87-1.75 3.87-3.9V517.9c0-2.14-1.7-3.9-3.87-3.9z" stroke="#fff" stroke-opacity="0" fill="#ed3e3e"/><path d="M427.76 494.8h-96.52c-1.42 0-2.54-1.2-2.54-2.56V432.1c0-1.4 1.12-2.56 2.54-2.56h96.52c1.42 0 2.54 1.17 2.54 2.55v60.14c0 1.37-1.12 2.55-2.54 2.55zm-93.88-5.17h91.24V434.7h-91.24zM398.78 518.5h28.97c1.7 0 2.55.86 2.55 2.58v4.8c0 1.72-.85 2.58-2.55 2.58h-28.97c-1.7 0-2.56-.86-2.56-2.57v-4.82c0-1.72.85-2.57 2.56-2.57z" stroke="#fff" stroke-opacity="0" fill="#ed3e3e"/><g><use xlink:href="#V" transform="matrix(1,0,0,1,289.0003204101249,546.9746876001282) translate(76.525 14.4)"/></g><path d="M440.9 479h100.6" stroke="#000" stroke-width="2" fill="none"/><path d="M440.92 480h-1.02v-2h1.02z"/><path d="M556.76 479l-14.26 4.62v-9.27z" stroke="#000" stroke-width="2"/><path d="M961.5 596.97v2H658.58v-2zm-799.5-1.5v-2h320.43v2zM976.76 597.97l-14.26 4.64v-9.26z"/><path d="M980 597.97L961.5 604v-12.04zm-16.5 3.26l10.03-3.26-10.03-3.25zM162.03 595.46H161v-2h1.03z"/><g><use xlink:href="#W" transform="matrix(1,0,0,1,482.425,585.4168647567) translate(0 14.4)"/><use xlink:href="#X" transform="matrix(1,0,0,1,482.425,585.4168647567) translate(77.2 14.4)"/><use xlink:href="#Y" transform="matrix(1,0,0,1,482.425,585.4168647567) translate(127.2 14.4)"/></g><defs><path d="M232-93c-1 65-40 97-104 97C67 4 28-28 28-90v-158h33c8 89-33 224 67 224 102 0 64-133 71-224h33v155" id="Z"/><path d="M135-143c-3-34-86-38-87 0 15 53 115 12 119 90S17 21 10-45l28-5c4 36 97 45 98 0-10-56-113-15-118-90-4-57 82-63 122-42 12 7 21 19 24 35" id="aa"/><path d="M100-194c63 0 86 42 84 106H49c0 40 14 67 53 68 26 1 43-12 49-29l28 8c-11 28-37 45-77 45C44 4 14-33 15-96c1-61 26-98 85-98zm52 81c6-60-76-77-97-28-3 7-6 17-6 28h103" id="ab"/><path d="M114-163C36-179 61-72 57 0H25l-1-190h30c1 12-1 29 2 39 6-27 23-49 58-41v29" id="ac"/><g id="a"><use transform="matrix(0.05,0,0,0.05,0,0)" xlink:href="#Z"/><use transform="matrix(0.05,0,0,0.05,12.950000000000001,0)" xlink:href="#aa"/><use transform="matrix(0.05,0,0,0.05,21.950000000000003,0)" xlink:href="#ab"/><use transform="matrix(0.05,0,0,0.05,31.950000000000003,0)" xlink:href="#ac"/></g><path d="M16-82v-28h88v28H16" id="ad"/><use transform="matrix(0.05,0,0,0.05,0,0)" xlink:href="#ad" id="b"/><path d="M100-194c62-1 85 37 85 99 1 63-27 99-86 99S16-35 15-95c0-66 28-99 85-99zM99-20c44 1 53-31 53-75 0-43-8-75-51-75s-53 32-53 75 10 74 51 75" id="ae"/><path d="M84 4C-5 8 30-112 23-190h32v120c0 31 7 50 39 49 72-2 45-101 50-169h31l1 190h-30c-1-10 1-25-2-33-11 22-28 36-60 37" id="af"/><path d="M96-169c-40 0-48 33-48 73s9 75 48 75c24 0 41-14 43-38l32 2c-6 37-31 61-74 61-59 0-76-41-82-99-10-93 101-131 147-64 4 7 5 14 7 22l-32 3c-4-21-16-35-41-35" id="ag"/><g id="c"><use transform="matrix(0.05,0,0,0.05,0,0)" xlink:href="#aa"/><use transform="matrix(0.05,0,0,0.05,9,0)" xlink:href="#ae"/><use transform="matrix(0.05,0,0,0.05,19,0)" xlink:href="#af"/><use transform="matrix(0.05,0,0,0.05,29,0)" xlink:href="#ac"/><use transform="matrix(0.05,0,0,0.05,34.95,0)" xlink:href="#ag"/><use transform="matrix(0.05,0,0,0.05,43.95,0)" xlink:href="#ab"/></g><path d="M210-169c-67 3-38 105-44 169h-31v-121c0-29-5-50-35-48C34-165 62-65 56 0H25l-1-190h30c1 10-1 24 2 32 10-44 99-50 107 0 11-21 27-35 58-36 85-2 47 119 55 194h-31v-121c0-29-5-49-35-48" id="ah"/><path d="M141-36C126-15 110 5 73 4 37 3 15-17 15-53c-1-64 63-63 125-63 3-35-9-54-41-54-24 1-41 7-42 31l-33-3c5-37 33-52 76-52 45 0 72 20 72 64v82c-1 20 7 32 28 27v20c-31 9-61-2-59-35zM48-53c0 20 12 33 32 33 41-3 63-29 60-74-43 2-92-5-92 41" id="ai"/><path d="M24-231v-30h32v30H24zM24 0v-190h32V0H24" id="aj"/><path d="M24 0v-261h32V0H24" id="ak"/><g id="d"><use transform="matrix(0.05,0,0,0.05,0,0)" xlink:href="#ab"/><use transform="matrix(0.05,0,0,0.05,10,0)" xlink:href="#ah"/><use transform="matrix(0.05,0,0,0.05,24.950000000000003,0)" xlink:href="#ai"/><use transform="matrix(0.05,0,0,0.05,34.95,0)" xlink:href="#aj"/><use transform="matrix(0.05,0,0,0.05,38.900000000000006,0)" xlink:href="#ak"/></g><use transform="matrix(0.05,0,0,0.05,0,0)" xlink:href="#ad" id="e"/><path d="M85-194c31 0 48 13 60 33l-1-100h32l1 261h-30c-2-10 0-23-3-31C134-8 116 4 85 4 32 4 16-35 15-94c0-66 23-100 70-100zm9 24c-40 0-46 34-46 75 0 40 6 74 45 74 42 0 51-32 51-76 0-42-9-74-50-73" id="al"/><path d="M59-47c-2 24 18 29 38 22v24C64 9 27 4 27-40v-127H5v-23h24l9-43h21v43h35v23H59v120" id="am"/><path d="M117-194c89-4 53 116 60 194h-32v-121c0-31-8-49-39-48C34-167 62-67 57 0H25l-1-190h30c1 10-1 24 2 32 11-22 29-35 61-36" id="an"/><g id="f"><use transform="matrix(0.05,0,0,0.05,0,0)" xlink:href="#al"/><use transform="matrix(0.05,0,0,0.05,10,0)" xlink:href="#ab"/><use transform="matrix(0.05,0,0,0.05,20,0)" xlink:href="#aa"/><use transform="matrix(0.05,0,0,0.05,29,0)" xlink:href="#am"/><use transform="matrix(0.05,0,0,0.05,34,0)" xlink:href="#aj"/><use transform="matrix(0.05,0,0,0.05,37.95,0)" xlink:href="#an"/><use transform="matrix(0.05,0,0,0.05,47.95,0)" xlink:href="#ai"/><use transform="matrix(0.05,0,0,0.05,57.95,0)" xlink:href="#am"/><use transform="matrix(0.05,0,0,0.05,62.95,0)" xlink:href="#aj"/><use transform="matrix(0.05,0,0,0.05,66.9,0)" xlink:href="#ae"/><use transform="matrix(0.05,0,0,0.05,76.9,0)" xlink:href="#an"/></g><g id="g"><use transform="matrix(0.05,0,0,0.05,0,0)" xlink:href="#ab"/><use transform="matrix(0.05,0,0,0.05,10,0)" xlink:href="#ah"/><use transform="matrix(0.05,0,0,0.05,24.950000000000003,0)" xlink:href="#ai"/><use transform="matrix(0.05,0,0,0.05,34.95,0)" xlink:href="#aj"/><use transform="matrix(0.05,0,0,0.05,38.900000000000006,0)" xlink:href="#ak"/><use transform="matrix(0.05,0,0,0.05,42.85000000000001,0)" xlink:href="#aa"/></g><path d="M101-234c-31-9-42 10-38 44h38v23H63V0H32v-167H5v-23h27c-7-52 17-82 69-68v24" id="ao"/><g id="h"><use transform="matrix(0.05,0,0,0.05,0,0)" xlink:href="#ao"/><use transform="matrix(0.05,0,0,0.05,5,0)" xlink:href="#ae"/><use transform="matrix(0.05,0,0,0.05,15,0)" xlink:href="#ac"/><use transform="matrix(0.05,0,0,0.05,20.95,0)" xlink:href="#ah"/></g><g id="i"><use transform="matrix(0.05,0,0,0.05,0,0)" xlink:href="#ao"/><use transform="matrix(0.05,0,0,0.05,5,0)" xlink:href="#aj"/><use transform="matrix(0.05,0,0,0.05,8.95,0)" xlink:href="#ab"/><use transform="matrix(0.05,0,0,0.05,18.95,0)" xlink:href="#ak"/><use transform="matrix(0.05,0,0,0.05,22.9,0)" xlink:href="#al"/><use transform="matrix(0.05,0,0,0.05,32.9,0)" xlink:href="#aa"/></g><path d="M108 0H70L1-190h34L89-25l56-165h34" id="ap"/><g id="j"><use transform="matrix(0.05,0,0,0.05,0,0)" xlink:href="#ab"/><use transform="matrix(0.05,0,0,0.05,10,0)" xlink:href="#an"/><use transform="matrix(0.05,0,0,0.05,20,0)" xlink:href="#ap"/></g><g id="k"><use transform="matrix(0.05,0,0,0.05,0,0)" xlink:href="#ap"/><use transform="matrix(0.05,0,0,0.05,9,0)" xlink:href="#ai"/><use transform="matrix(0.05,0,0,0.05,19,0)" xlink:href="#ac"/><use transform="matrix(0.05,0,0,0.05,24.95,0)" xlink:href="#aa"/></g><path d="M190 0L58-211 59 0H30v-248h39L202-35l-2-213h31V0h-41" id="aq"/><path d="M33 0v-38h34V0H33" id="ar"/><path d="M24-231v-30h32v30H24zM-9 49c24 4 33-6 33-30v-209h32V24c2 40-23 58-65 49V49" id="as"/><g id="m"><use transform="matrix(0.05,0,0,0.05,0,0)" xlink:href="#aq"/><use transform="matrix(0.05,0,0,0.05,12.950000000000001,0)" xlink:href="#ae"/><use transform="matrix(0.05,0,0,0.05,22.950000000000003,0)" xlink:href="#al"/><use transform="matrix(0.05,0,0,0.05,32.95,0)" xlink:href="#ab"/><use transform="matrix(0.05,0,0,0.05,42.95,0)" xlink:href="#ar"/><use transform="matrix(0.05,0,0,0.05,47.95,0)" xlink:href="#as"/><use transform="matrix(0.05,0,0,0.05,51.900000000000006,0)" xlink:href="#aa"/></g><path d="M233-177c-1 41-23 64-60 70L243 0h-38l-65-103H63V0H30v-248c88 3 205-21 203 71zM63-129c60-2 137 13 137-47 0-61-80-42-137-45v92" id="at"/><path d="M179-190L93 31C79 59 56 82 12 73V49c39 6 53-20 64-50L1-190h34L92-34l54-156h33" id="au"/><g id="n"><use transform="matrix(0.05,0,0,0.05,0,0)" xlink:href="#at"/><use transform="matrix(0.05,0,0,0.05,12.950000000000001,0)" xlink:href="#ab"/><use transform="matrix(0.05,0,0,0.05,22.950000000000003,0)" xlink:href="#ai"/><use transform="matrix(0.05,0,0,0.05,32.95,0)" xlink:href="#al"/><use transform="matrix(0.05,0,0,0.05,42.95,0)" xlink:href="#au"/></g><g id="o"><use transform="matrix(0.05,0,0,0.05,0,0)" xlink:href="#am"/><use transform="matrix(0.05,0,0,0.05,5,0)" xlink:href="#ae"/></g><g id="p"><use transform="matrix(0.05,0,0,0.05,0,0)" xlink:href="#af"/><use transform="matrix(0.05,0,0,0.05,10,0)" xlink:href="#aa"/><use transform="matrix(0.05,0,0,0.05,19,0)" xlink:href="#ab"/></g><path d="M197 0v-115H63V0H30v-248h33v105h134v-105h34V0h-34" id="av"/><path d="M127-220V0H93v-220H8v-28h204v28h-85" id="aw"/><path d="M240 0l2-218c-23 76-54 145-80 218h-23L58-218 59 0H30v-248h44l77 211c21-75 51-140 76-211h43V0h-30" id="ax"/><path d="M30 0v-248h33v221h125V0H30" id="ay"/><g id="q"><use transform="matrix(0.05,0,0,0.05,0,0)" xlink:href="#av"/><use transform="matrix(0.05,0,0,0.05,12.950000000000001,0)" xlink:href="#aw"/><use transform="matrix(0.05,0,0,0.05,23.900000000000002,0)" xlink:href="#ax"/><use transform="matrix(0.05,0,0,0.05,38.85,0)" xlink:href="#ay"/></g><g id="r"><use transform="matrix(0.05,0,0,0.05,0,0)" xlink:href="#ao"/><use transform="matrix(0.05,0,0,0.05,5,0)" xlink:href="#ae"/><use transform="matrix(0.05,0,0,0.05,15,0)" xlink:href="#ac"/><use transform="matrix(0.05,0,0,0.05,20.95,0)" xlink:href="#ah"/></g><path d="M205 0l-28-72H64L36 0H1l101-248h38L239 0h-34zm-38-99l-47-123c-12 45-31 82-46 123h93" id="az"/><path d="M9 0v-24l116-142H16v-24h144v24L44-24h123V0H9" id="aA"/><g id="s"><use transform="matrix(0.05,0,0,0.05,0,0)" xlink:href="#az"/><use transform="matrix(0.05,0,0,0.05,12,0)" xlink:href="#ah"/><use transform="matrix(0.05,0,0,0.05,26.950000000000003,0)" xlink:href="#ai"/><use transform="matrix(0.05,0,0,0.05,36.95,0)" xlink:href="#aA"/><use transform="matrix(0.05,0,0,0.05,45.95,0)" xlink:href="#ae"/><use transform="matrix(0.05,0,0,0.05,55.95,0)" xlink:href="#an"/></g><path d="M30-248c87 1 191-15 191 75 0 78-77 80-158 76V0H30v-248zm33 125c57 0 124 11 124-50 0-59-68-47-124-48v98" id="aB"/><path d="M33 0v-248h34V0H33" id="aC"/><g id="t"><use transform="matrix(0.05,0,0,0.05,0,0)" xlink:href="#az"/><use transform="matrix(0.05,0,0,0.05,12,0)" xlink:href="#aB"/><use transform="matrix(0.05,0,0,0.05,24,0)" xlink:href="#aC"/></g><path d="M143 4C61 4 22-44 18-125c-5-107 100-154 193-111 17 8 29 25 37 43l-32 9c-13-25-37-40-76-40-61 0-88 39-88 99 0 61 29 100 91 101 35 0 62-11 79-27v-45h-74v-28h105v86C228-13 192 4 143 4" id="aD"/><path d="M206 0h-36l-40-164L89 0H53L-1-190h32L70-26l43-164h34l41 164 42-164h31" id="aE"/><g id="u"><use transform="matrix(0.05,0,0,0.05,0,0)" xlink:href="#aD"/><use transform="matrix(0.05,0,0,0.05,14,0)" xlink:href="#ai"/><use transform="matrix(0.05,0,0,0.05,24,0)" xlink:href="#am"/><use transform="matrix(0.05,0,0,0.05,29,0)" xlink:href="#ab"/><use transform="matrix(0.05,0,0,0.05,39,0)" xlink:href="#aE"/><use transform="matrix(0.05,0,0,0.05,51.95,0)" xlink:href="#ai"/><use transform="matrix(0.05,0,0,0.05,61.95,0)" xlink:href="#au"/></g><path d="M185-189c-5-48-123-54-124 2 14 75 158 14 163 119 3 78-121 87-175 55-17-10-28-26-33-46l33-7c5 56 141 63 141-1 0-78-155-14-162-118-5-82 145-84 179-34 5 7 8 16 11 25" id="aF"/><path d="M30 0v-248h187v28H63v79h144v27H63v87h162V0H30" id="aG"/><g id="v"><use transform="matrix(0.05,0,0,0.05,0,0)" xlink:href="#aF"/><use transform="matrix(0.05,0,0,0.05,12,0)" xlink:href="#aG"/><use transform="matrix(0.05,0,0,0.05,24,0)" xlink:href="#aF"/></g><g id="w"><use transform="matrix(0.05,0,0,0.05,0,0)" xlink:href="#aG"/><use transform="matrix(0.05,0,0,0.05,12,0)" xlink:href="#ah"/><use transform="matrix(0.05,0,0,0.05,26.950000000000003,0)" xlink:href="#ai"/><use transform="matrix(0.05,0,0,0.05,36.95,0)" xlink:href="#aj"/><use transform="matrix(0.05,0,0,0.05,40.900000000000006,0)" xlink:href="#ak"/></g><path d="M30-248c118-7 216 8 213 122C240-48 200 0 122 0H30v-248zM63-27c89 8 146-16 146-99s-60-101-146-95v194" id="aH"/><path d="M160-131c35 5 61 23 61 61C221 17 115-2 30 0v-248c76 3 177-17 177 60 0 33-19 50-47 57zm-97-11c50-1 110 9 110-42 0-47-63-36-110-37v79zm0 115c55-2 124 14 124-45 0-56-70-42-124-44v89" id="aI"/><g id="x"><use transform="matrix(0.05,0,0,0.05,0,0)" xlink:href="#aH"/><use transform="matrix(0.05,0,0,0.05,12.950000000000001,0)" xlink:href="#au"/><use transform="matrix(0.05,0,0,0.05,21.950000000000003,0)" xlink:href="#an"/><use transform="matrix(0.05,0,0,0.05,31.950000000000003,0)" xlink:href="#ai"/><use transform="matrix(0.05,0,0,0.05,41.95,0)" xlink:href="#ah"/><use transform="matrix(0.05,0,0,0.05,56.900000000000006,0)" xlink:href="#ae"/><use transform="matrix(0.05,0,0,0.05,66.9,0)" xlink:href="#aH"/><use transform="matrix(0.05,0,0,0.05,79.85000000000001,0)" xlink:href="#aI"/></g><g id="y"><use transform="matrix(0.05,0,0,0.05,0,0)" xlink:href="#aC"/><use transform="matrix(0.05,0,0,0.05,5,0)" xlink:href="#am"/><use transform="matrix(0.05,0,0,0.05,10,0)" xlink:href="#ab"/><use transform="matrix(0.05,0,0,0.05,20,0)" xlink:href="#ah"/></g><path d="M115-194c53 0 69 39 70 98 0 66-23 100-70 100C84 3 66-7 56-30L54 0H23l1-261h32v101c10-23 28-34 59-34zm-8 174c40 0 45-34 45-75 0-40-5-75-45-74-42 0-51 32-51 76 0 43 10 73 51 73" id="aJ"/><g id="z"><use transform="matrix(0.05,0,0,0.05,0,0)" xlink:href="#aw"/><use transform="matrix(0.05,0,0,0.05,8.950000000000001,0)" xlink:href="#ai"/><use transform="matrix(0.05,0,0,0.05,18.950000000000003,0)" xlink:href="#aJ"/><use transform="matrix(0.05,0,0,0.05,28.950000000000003,0)" xlink:href="#ak"/><use transform="matrix(0.05,0,0,0.05,32.900000000000006,0)" xlink:href="#ab"/></g><g id="A"><use transform="matrix(0.05,0,0,0.05,0,0)" xlink:href="#ay"/><use transform="matrix(0.05,0,0,0.05,10,0)" xlink:href="#ai"/><use transform="matrix(0.05,0,0,0.05,20,0)" xlink:href="#ah"/><use transform="matrix(0.05,0,0,0.05,34.95,0)" xlink:href="#aJ"/><use transform="matrix(0.05,0,0,0.05,44.95,0)" xlink:href="#al"/><use transform="matrix(0.05,0,0,0.05,54.95,0)" xlink:href="#ai"/></g><path d="M63-220v92h138v28H63V0H30v-248h175v28H63" id="aK"/><g id="B"><use transform="matrix(0.05,0,0,0.05,0,0)" xlink:href="#aK"/><use transform="matrix(0.05,0,0,0.05,10.950000000000001,0)" xlink:href="#af"/><use transform="matrix(0.05,0,0,0.05,20.950000000000003,0)" xlink:href="#an"/><use transform="matrix(0.05,0,0,0.05,30.950000000000003,0)" xlink:href="#ag"/><use transform="matrix(0.05,0,0,0.05,39.95,0)" xlink:href="#am"/><use transform="matrix(0.05,0,0,0.05,44.95,0)" xlink:href="#aj"/><use transform="matrix(0.05,0,0,0.05,48.900000000000006,0)" xlink:href="#ae"/><use transform="matrix(0.05,0,0,0.05,58.900000000000006,0)" xlink:href="#an"/></g><path d="M126-127c33 6 58 20 58 59 0 88-139 92-164 29-3-8-5-16-6-25l32-3c6 27 21 44 54 44 32 0 52-15 52-46 0-38-36-46-79-43v-28c39 1 72-4 72-42 0-27-17-43-46-43-28 0-47 15-49 41l-32-3c6-42 35-63 81-64 48-1 79 21 79 65 0 36-21 52-52 59" id="aL"/><g id="C"><use transform="matrix(0.05,0,0,0.05,0,0)" xlink:href="#aL"/><use transform="matrix(0.05,0,0,0.05,10,0)" xlink:href="#ar"/></g><path d="M212-179c-10-28-35-45-73-45-59 0-87 40-87 99 0 60 29 101 89 101 43 0 62-24 78-52l27 14C228-24 195 4 139 4 59 4 22-46 18-125c-6-104 99-153 187-111 19 9 31 26 39 46" id="aM"/><g id="D"><use transform="matrix(0.05,0,0,0.05,0,0)" xlink:href="#aM"/><use transform="matrix(0.05,0,0,0.05,12.950000000000001,0)" xlink:href="#ac"/><use transform="matrix(0.05,0,0,0.05,18.900000000000002,0)" xlink:href="#ab"/><use transform="matrix(0.05,0,0,0.05,28.900000000000002,0)" xlink:href="#ai"/><use transform="matrix(0.05,0,0,0.05,38.900000000000006,0)" xlink:href="#am"/><use transform="matrix(0.05,0,0,0.05,43.900000000000006,0)" xlink:href="#ab"/></g><path d="M106-169C34-169 62-67 57 0H25v-261h32l-1 103c12-21 28-36 61-36 89 0 53 116 60 194h-32v-121c2-32-8-49-39-48" id="aN"/><g id="E"><use transform="matrix(0.05,0,0,0.05,0,0)" xlink:href="#am"/><use transform="matrix(0.05,0,0,0.05,5,0)" xlink:href="#aN"/><use transform="matrix(0.05,0,0,0.05,15,0)" xlink:href="#ab"/></g><g id="F"><use transform="matrix(0.05,0,0,0.05,0,0)" xlink:href="#ay"/><use transform="matrix(0.05,0,0,0.05,10,0)" xlink:href="#ai"/><use transform="matrix(0.05,0,0,0.05,20,0)" xlink:href="#ah"/><use transform="matrix(0.05,0,0,0.05,34.95,0)" xlink:href="#aJ"/><use transform="matrix(0.05,0,0,0.05,44.95,0)" xlink:href="#al"/><use transform="matrix(0.05,0,0,0.05,54.95,0)" xlink:href="#ai"/></g><path d="M155-56V0h-30v-56H8v-25l114-167h33v167h35v25h-35zm-30-156c-27 46-58 90-88 131h88v-131" id="aO"/><g id="G"><use transform="matrix(0.05,0,0,0.05,0,0)" xlink:href="#aO"/><use transform="matrix(0.05,0,0,0.05,10,0)" xlink:href="#ar"/></g><g id="H"><use transform="matrix(0.05,0,0,0.05,0,0)" xlink:href="#at"/><use transform="matrix(0.05,0,0,0.05,12.950000000000001,0)" xlink:href="#aG"/><use transform="matrix(0.05,0,0,0.05,24.950000000000003,0)" xlink:href="#aF"/><use transform="matrix(0.05,0,0,0.05,36.95,0)" xlink:href="#aw"/></g><g id="I"><use transform="matrix(0.05,0,0,0.05,0,0)" xlink:href="#az"/><use transform="matrix(0.05,0,0,0.05,12,0)" xlink:href="#aB"/><use transform="matrix(0.05,0,0,0.05,24,0)" xlink:href="#aC"/></g><path d="M101-251c82-7 93 87 43 132L82-64C71-53 59-42 53-27h129V0H18c2-99 128-94 128-182 0-28-16-43-45-43s-46 15-49 41l-32-3c6-41 34-60 81-64" id="aP"/><g id="J"><use transform="matrix(0.05,0,0,0.05,0,0)" xlink:href="#aP"/><use transform="matrix(0.05,0,0,0.05,10,0)" xlink:href="#ar"/></g><g id="K"><use transform="matrix(0.05,0,0,0.05,0,0)" xlink:href="#aH"/><use transform="matrix(0.05,0,0,0.05,12.950000000000001,0)" xlink:href="#au"/><use transform="matrix(0.05,0,0,0.05,21.950000000000003,0)" xlink:href="#an"/><use transform="matrix(0.05,0,0,0.05,31.950000000000003,0)" xlink:href="#ai"/><use transform="matrix(0.05,0,0,0.05,41.95,0)" xlink:href="#ah"/><use transform="matrix(0.05,0,0,0.05,56.900000000000006,0)" xlink:href="#ae"/></g><g id="L"><use transform="matrix(0.05,0,0,0.05,0,0)" xlink:href="#aH"/><use transform="matrix(0.05,0,0,0.05,12.950000000000001,0)" xlink:href="#aI"/></g><path d="M115-194c55 1 70 41 70 98S169 2 115 4C84 4 66-9 55-30l1 105H24l-1-265h31l2 30c10-21 28-34 59-34zm-8 174c40 0 45-34 45-75s-6-73-45-74c-42 0-51 32-51 76 0 43 10 73 51 73" id="aQ"/><g id="M"><use transform="matrix(0.05,0,0,0.05,0,0)" xlink:href="#aF"/><use transform="matrix(0.05,0,0,0.05,12,0)" xlink:href="#aj"/><use transform="matrix(0.05,0,0,0.05,15.949999999999998,0)" xlink:href="#ah"/><use transform="matrix(0.05,0,0,0.05,30.899999999999995,0)" xlink:href="#aQ"/><use transform="matrix(0.05,0,0,0.05,40.9,0)" xlink:href="#ak"/><use transform="matrix(0.05,0,0,0.05,44.85,0)" xlink:href="#ab"/></g><g id="N"><use transform="matrix(0.05,0,0,0.05,0,0)" xlink:href="#aG"/><use transform="matrix(0.05,0,0,0.05,12,0)" xlink:href="#ah"/><use transform="matrix(0.05,0,0,0.05,26.950000000000003,0)" xlink:href="#ai"/><use transform="matrix(0.05,0,0,0.05,36.95,0)" xlink:href="#aj"/><use transform="matrix(0.05,0,0,0.05,40.900000000000006,0)" xlink:href="#ak"/></g><g id="O"><use transform="matrix(0.05,0,0,0.05,0,0)" xlink:href="#aF"/><use transform="matrix(0.05,0,0,0.05,12,0)" xlink:href="#ab"/><use transform="matrix(0.05,0,0,0.05,22,0)" xlink:href="#ac"/><use transform="matrix(0.05,0,0,0.05,27.950000000000003,0)" xlink:href="#ap"/><use transform="matrix(0.05,0,0,0.05,36.95,0)" xlink:href="#aj"/><use transform="matrix(0.05,0,0,0.05,40.900000000000006,0)" xlink:href="#ag"/><use transform="matrix(0.05,0,0,0.05,49.900000000000006,0)" xlink:href="#ab"/></g><path d="M87 75C49 33 22-17 22-94c0-76 28-126 65-167h31c-38 41-64 92-64 168S80 34 118 75H87" id="aR"/><path d="M33-261c38 41 65 92 65 168S71 34 33 75H2C39 34 66-17 66-93S39-220 2-261h31" id="aS"/><g id="P"><use transform="matrix(0.05,0,0,0.05,0,0)" xlink:href="#aR"/><use transform="matrix(0.05,0,0,0.05,5.95,0)" xlink:href="#aF"/><use transform="matrix(0.05,0,0,0.05,17.95,0)" xlink:href="#aG"/><use transform="matrix(0.05,0,0,0.05,29.950000000000003,0)" xlink:href="#aF"/><use transform="matrix(0.05,0,0,0.05,41.95,0)" xlink:href="#aS"/></g><path d="M27 0v-27h64v-190l-56 39v-29l58-41h29v221h61V0H27" id="aT"/><g id="Q"><use transform="matrix(0.05,0,0,0.05,0,0)" xlink:href="#aT"/><use transform="matrix(0.05,0,0,0.05,10,0)" xlink:href="#ar"/></g><path d="M137 0h-34L2-248h35l83 218 83-218h36" id="aU"/><g id="R"><use transform="matrix(0.05,0,0,0.05,0,0)" xlink:href="#aU"/><use transform="matrix(0.05,0,0,0.05,10.65,0)" xlink:href="#ai"/><use transform="matrix(0.05,0,0,0.05,20.65,0)" xlink:href="#ak"/><use transform="matrix(0.05,0,0,0.05,24.599999999999998,0)" xlink:href="#aj"/><use transform="matrix(0.05,0,0,0.05,28.549999999999997,0)" xlink:href="#al"/><use transform="matrix(0.05,0,0,0.05,38.55,0)" xlink:href="#ai"/><use transform="matrix(0.05,0,0,0.05,48.55,0)" xlink:href="#am"/><use transform="matrix(0.05,0,0,0.05,53.54999999999999,0)" xlink:href="#ab"/></g><g id="S"><use transform="matrix(0.05,0,0,0.05,0,0)" xlink:href="#ab"/><use transform="matrix(0.05,0,0,0.05,10,0)" xlink:href="#ah"/><use transform="matrix(0.05,0,0,0.05,24.950000000000003,0)" xlink:href="#ai"/><use transform="matrix(0.05,0,0,0.05,34.95,0)" xlink:href="#aj"/><use transform="matrix(0.05,0,0,0.05,38.900000000000006,0)" xlink:href="#ak"/></g><path d="M0 4l72-265h28L28 4H0" id="aV"/><g id="T"><use transform="matrix(0.05,0,0,0.05,0,0)" xlink:href="#aE"/><use transform="matrix(0.05,0,0,0.05,12.950000000000001,0)" xlink:href="#aV"/></g><g id="U"><use transform="matrix(0.05,0,0,0.05,0,0)" xlink:href="#aF"/><use transform="matrix(0.05,0,0,0.05,12,0)" xlink:href="#aG"/><use transform="matrix(0.05,0,0,0.05,24,0)" xlink:href="#aF"/></g><g id="V"><use transform="matrix(0.05,0,0,0.05,0,0)" xlink:href="#aM"/><use transform="matrix(0.05,0,0,0.05,12.950000000000001,0)" xlink:href="#ay"/><use transform="matrix(0.05,0,0,0.05,22.950000000000003,0)" xlink:href="#aC"/></g><path d="M153-248C145-148 188 4 80 4 36 3 13-21 6-62l32-5c4 25 16 42 43 43 27 0 39-20 39-49v-147H72v-28h81" id="aW"/><path d="M140-251c81 0 123 46 123 126C263-53 228-8 163 1c7 30 30 48 69 40v23c-55 16-95-15-103-61C56-3 17-48 17-125c0-80 42-126 123-126zm0 227c63 0 89-41 89-101s-29-99-89-99c-61 0-89 39-89 99S79-25 140-24" id="aX"/><path d="M137-103V0h-34v-103L8-248h37l75 118 75-118h37" id="aY"/><g id="W"><use transform="matrix(0.05,0,0,0.05,0,0)" xlink:href="#aW"/><use transform="matrix(0.05,0,0,0.05,9,0)" xlink:href="#aX"/><use transform="matrix(0.05,0,0,0.05,23,0)" xlink:href="#Z"/><use transform="matrix(0.05,0,0,0.05,35.95,0)" xlink:href="#aG"/><use transform="matrix(0.05,0,0,0.05,47.95,0)" xlink:href="#at"/><use transform="matrix(0.05,0,0,0.05,60.550000000000004,0)" xlink:href="#aY"/></g><path d="M195 0l-74-108L45 0H8l94-129-87-119h37l69 98 67-98h37l-84 118L233 0h-38" id="aZ"/><g id="X"><use transform="matrix(0.05,0,0,0.05,0,0)" xlink:href="#az"/><use transform="matrix(0.05,0,0,0.05,12,0)" xlink:href="#aW"/><use transform="matrix(0.05,0,0,0.05,21,0)" xlink:href="#az"/><use transform="matrix(0.05,0,0,0.05,33,0)" xlink:href="#aZ"/></g><path d="M140-251c81 0 123 46 123 126C263-46 219 4 140 4 59 4 17-45 17-125s42-126 123-126zm0 227c63 0 89-41 89-101s-29-99-89-99c-61 0-89 39-89 99S79-25 140-24" id="ba"/><g id="Y"><use transform="matrix(0.05,0,0,0.05,0,0)" xlink:href="#aB"/><use transform="matrix(0.05,0,0,0.05,12,0)" xlink:href="#ba"/><use transform="matrix(0.05,0,0,0.05,26,0)" xlink:href="#aF"/><use transform="matrix(0.05,0,0,0.05,38,0)" xlink:href="#aw"/></g></defs></g></svg>